<svg width="724pt" height="451pt" viewBox="0.00 0.00 724.00 451.24" xmlns="http://www.w3.org/2000/svg" xmlns:xlink="http://www.w3.org/1999/xlink">
<g id="graph0" class="graph" transform="scale(1 1) rotate(0) translate(4 447.24)">
<title>G</title>
<polygon fill="white" stroke="none" points="-4,4 -4,-447.24 720,-447.24 720,4 -4,4"/>
<g id="clust1" class="cluster">
<title>cluster_0</title>
<polygon fill="lightgrey" stroke="lightgrey" points="8,-238.62 8,-435.24 381,-435.24 381,-238.62 8,-238.62"/>
<text text-anchor="middle" x="194.5" y="-418.64" font-family="Times,serif" font-size="14.00">Hardware</text>
</g>
<g id="clust3" class="cluster">
<title>cluster_1</title>
<polygon fill="lightgrey" stroke="lightgrey" points="180,-8 180,-188.6 708,-188.6 708,-8 180,-8"/>
<text text-anchor="middle" x="444" y="-172" font-family="Times,serif" font-size="14.00">Software</text>
</g>
<g id="clust4" class="cluster">
<title>cluster_2</title>
<polygon fill="grey" stroke="grey" points="188,-16 188,-92.8 700,-92.8 700,-16 188,-16"/>
<text text-anchor="middle" x="444" y="-76.2" font-family="Times,serif" font-size="14.00">Graphs</text>
</g>
<!-- ESP -->
<g id="node1" class="node">
<title>ESP</title>
<polygon fill="white" stroke="white" points="256,-402.44 216.86,-384.44 256,-366.44 295.14,-384.44 256,-402.44"/>
<polyline fill="none" stroke="white" points="227.76,-389.45 227.76,-379.42"/>
<polyline fill="none" stroke="white" points="245.1,-371.45 266.9,-371.45"/>
<polyline fill="none" stroke="white" points="284.24,-379.42 284.24,-389.45"/>
<polyline fill="none" stroke="white" points="266.9,-397.42 245.1,-397.42"/>
<text text-anchor="middle" x="256" y="-380.24" font-family="Times,serif" font-size="14.00">ESP</text>
</g>
<!-- Humidity -->
<g id="node2" class="node">
<title>Humidity</title>
<ellipse fill="white" stroke="white" cx="64" cy="-264.62" rx="48.06" ry="18"/>
<text text-anchor="middle" x="64" y="-260.42" font-family="Times,serif" font-size="14.00">Humidity</text>
</g>
<!-- ESP&#45;&gt;Humidity -->
<g id="edge1" class="edge">
<title>ESP-&gt;Humidity</title>
<path fill="none" stroke="black" d="M236.46,-375.01C209.51,-363.01 159.84,-339.57 121,-313.64 110.23,-306.45 99.18,-297.55 89.7,-289.37"/>
<polygon fill="black" stroke="black" points="92.11,-286.83 82.3,-282.83 87.48,-292.07 92.11,-286.83"/>
</g>
<!-- Temperature -->
<g id="node3" class="node">
<title>Temperature</title>
<ellipse fill="white" stroke="white" cx="190" cy="-264.62" rx="60.36" ry="18"/>
<text text-anchor="middle" x="190" y="-260.42" font-family="Times,serif" font-size="14.00">Temperature</text>
</g>
<!-- ESP&#45;&gt;Temperature -->
<g id="edge2" class="edge">
<title>ESP-&gt;Temperature</title>
<path fill="none" stroke="black" d="M248.43,-369.92C237.93,-351.18 218.71,-316.88 205.19,-292.74"/>
<polygon fill="black" stroke="black" points="208.29,-291.11 200.35,-284.1 202.18,-294.53 208.29,-291.11"/>
</g>
<!-- Brightness -->
<g id="node4" class="node">
<title>Brightness</title>
<ellipse fill="white" stroke="white" cx="321" cy="-264.62" rx="52.35" ry="18"/>
<text text-anchor="middle" x="321" y="-260.42" font-family="Times,serif" font-size="14.00">Brightness</text>
</g>
<!-- ESP&#45;&gt;Brightness -->
<g id="edge3" class="edge">
<title>ESP-&gt;Brightness</title>
<path fill="none" stroke="black" d="M263.71,-369.46C274.14,-350.56 292.95,-316.46 306.17,-292.51"/>
<polygon fill="black" stroke="black" points="309.12,-294.39 310.89,-283.95 302.99,-291.01 309.12,-294.39"/>
</g>
<!-- MQTT Broker -->
<g id="node5" class="node">
<title>MQTT Broker</title>
<polygon fill="none" stroke="black" points="489.02,-313.64 390.98,-313.64 390.98,-215.6 489.02,-215.6 489.02,-313.64"/>
<polyline fill="none" stroke="black" points="402.98,-313.64 390.98,-301.64"/>
<polyline fill="none" stroke="black" points="390.98,-227.6 402.98,-215.6"/>
<polyline fill="none" stroke="black" points="477.02,-215.6 489.02,-227.6"/>
<polyline fill="none" stroke="black" points="489.02,-301.64 477.02,-313.64"/>
<text text-anchor="middle" x="440" y="-260.42" font-family="Times,serif" font-size="14.00">MQTT Broker</text>
</g>
<!-- ESP&#45;&gt;MQTT Broker -->
<g id="edge4" class="edge">
<title>ESP-&gt;MQTT Broker</title>
<path fill="none" stroke="black" d="M275.13,-374.74C299.15,-363.48 341.48,-342.52 381.37,-315.91"/>
<polygon fill="black" stroke="black" points="383.1,-318.96 389.39,-310.44 379.15,-313.18 383.1,-318.96"/>
<text text-anchor="middle" x="367.35" y="-335.84" font-family="Times,serif" font-size="14.00">Wifi</text>
</g>
<!-- Java MQTT client -->
<g id="node6" class="node">
<title>Java MQTT client</title>
<polygon fill="none" stroke="black" points="440,-155.8 324.27,-137.8 440,-119.8 555.73,-137.8 440,-155.8"/>
<polyline fill="none" stroke="black" points="336.13,-139.64 336.13,-135.96"/>
<polyline fill="none" stroke="black" points="428.14,-121.64 451.86,-121.64"/>
<polyline fill="none" stroke="black" points="543.87,-135.96 543.87,-139.64"/>
<polyline fill="none" stroke="black" points="451.86,-153.96 428.14,-153.96"/>
<text text-anchor="middle" x="440" y="-133.6" font-family="Times,serif" font-size="14.00">Java MQTT client</text>
</g>
<!-- MQTT Broker&#45;&gt;Java MQTT client -->
<g id="edge5" class="edge">
<title>MQTT Broker-&gt;Java MQTT client</title>
<path fill="none" stroke="black" d="M440,-215.36C440,-199.23 440,-181.77 440,-167.6"/>
<polygon fill="black" stroke="black" points="443.5,-167.63 440,-157.63 436.5,-167.63 443.5,-167.63"/>
</g>
<!-- Humidity (%) -->
<g id="node7" class="node">
<title>Humidity (%)</title>
<ellipse fill="white" stroke="white" cx="261" cy="-42" rx="64.95" ry="18"/>
<text text-anchor="middle" x="261" y="-37.8" font-family="Times,serif" font-size="14.00">Humidity (%)</text>
</g>
<!-- Java MQTT client&#45;&gt;Humidity (%) -->
<g id="edge6" class="edge">
<title>Java MQTT client-&gt;Humidity (%)</title>
<path fill="none" stroke="black" d="M406.6,-124.73C385.57,-116.67 358.14,-105.28 335,-92.8 320.34,-84.89 304.93,-74.84 291.99,-65.83"/>
<polygon fill="black" stroke="black" points="294.05,-63.01 283.87,-60.08 290.01,-68.72 294.05,-63.01"/>
</g>
<!-- Temperature (&lt;60°C) -->
<g id="node8" class="node">
<title>Temperature (&lt;60°C)</title>
<ellipse fill="white" stroke="white" cx="440" cy="-42" rx="95.58" ry="18"/>
<text text-anchor="middle" x="440" y="-37.8" font-family="Times,serif" font-size="14.00">Temperature (&lt;60°C)</text>
</g>
<!-- Java MQTT client&#45;&gt;Temperature (&lt;60°C) -->
<g id="edge7" class="edge">
<title>Java MQTT client-&gt;Temperature (&lt;60°C)</title>
<path fill="none" stroke="black" d="M440,-119.6C440,-106.19 440,-87.29 440,-71.62"/>
<polygon fill="black" stroke="black" points="443.5,-71.93 440,-61.93 436.5,-71.93 443.5,-71.93"/>
</g>
<!-- Brightness (%) -->
<g id="node9" class="node">
<title>Brightness (%)</title>
<ellipse fill="white" stroke="white" cx="623" cy="-42" rx="69.24" ry="18"/>
<text text-anchor="middle" x="623" y="-37.8" font-family="Times,serif" font-size="14.00">Brightness (%)</text>
</g>
<!-- Java MQTT client&#45;&gt;Brightness (%) -->
<g id="edge8" class="edge">
<title>Java MQTT client-&gt;Brightness (%)</title>
<path fill="none" stroke="black" d="M473.3,-124.54C494.28,-116.4 521.71,-105 545,-92.8 560.35,-84.76 576.6,-74.66 590.28,-65.66"/>
<polygon fill="black" stroke="black" points="592.1,-68.65 598.48,-60.18 588.22,-62.83 592.1,-68.65"/>
</g>
</g>
</svg>